HIERARCHY
ROOT Hips
{
    OFFSET 0.000000 0.000000 0.000000
    CHANNELS 6 Xposition Yposition Zposition Zrotation Xrotation Yrotation
    JOINT Spine
    {
        OFFSET -0.000000 8.104110 0.000000
        CHANNELS 3 Zrotation Xrotation Yrotation
        JOINT Spine1
        {
            OFFSET -0.000000 22.417536 0.000000
            CHANNELS 3 Zrotation Xrotation Yrotation
            JOINT Neck
            {
                OFFSET -0.000000 22.325472 2.029588
                CHANNELS 3 Zrotation Xrotation Yrotation
                JOINT Head
                {
                    OFFSET -0.000000 13.836284 -1.976612
                    CHANNELS 3 Zrotation Xrotation Yrotation
                    End Site
                    {
                        OFFSET -0.000000 24.707651 0.000000
                    }
                }
            }
            JOINT LeftShoulder
            {
                OFFSET 3.973640 20.379602 -0.279950
                CHANNELS 3 Zrotation Xrotation Yrotation
                JOINT LeftArm
                {
                    OFFSET 11.493720 0.000000 0.000000
                    CHANNELS 3 Zrotation Xrotation Yrotation
                    JOINT LeftForeArm
                    {
                        OFFSET 31.336695 0.000000 0.000000
                        CHANNELS 3 Zrotation Xrotation Yrotation
                        JOINT LeftHand
                        {
                            OFFSET 29.043781 0.000000 0.000000
                            CHANNELS 3 Zrotation Xrotation Yrotation
                            End Site
                            {
                                OFFSET 14.824592 0.000000 0.000000
                            }
                        }
                    }
                }
            }
            JOINT RightShoulder
            {
                OFFSET -3.921018 20.379602 -0.279950
                CHANNELS 3 Zrotation Xrotation Yrotation
                JOINT RightArm
                {
                    OFFSET -11.493720 0.000000 0.000000
                    CHANNELS 3 Zrotation Xrotation Yrotation
                    JOINT RightForeArm
                    {
                        OFFSET -31.336695 0.000000 0.000000
                        CHANNELS 3 Zrotation Xrotation Yrotation
                        JOINT RightHand
                        {
                            OFFSET -29.043781 0.000000 0.000000
                            CHANNELS 3 Zrotation Xrotation Yrotation
                            End Site
                            {
                                OFFSET -14.824592 0.000000 0.000000
                            }
                        }
                    }
                }
            }
        }
    }
    JOINT LeftUpLeg
    {
        OFFSET 9.883060 0.000000 0.000000
        CHANNELS 3 Zrotation Xrotation Yrotation
        JOINT LeftLeg
        {
            OFFSET -0.000000 -43.587502 0.000000
            CHANNELS 3 Zrotation Xrotation Yrotation
            JOINT LeftFoot
            {
                OFFSET -0.000000 -41.501083 0.000000
                CHANNELS 3 Zrotation Xrotation Yrotation
                JOINT LeftToeBase
                {
                    OFFSET -0.000000 -6.423989 14.824592
                    CHANNELS 3 Zrotation Xrotation Yrotation
                    End Site
                    {
                        OFFSET -0.000000 0.000000 3.953224
                    }
                }
            }
        }
    }
    JOINT RightUpLeg
    {
        OFFSET -9.883060 0.000000 0.000000
        CHANNELS 3 Zrotation Xrotation Yrotation
        JOINT RightLeg
        {
            OFFSET -0.000000 -43.587502 0.000000
            CHANNELS 3 Zrotation Xrotation Yrotation
            JOINT RightFoot
            {
                OFFSET -0.000000 -41.501083 0.000000
                CHANNELS 3 Zrotation Xrotation Yrotation
                JOINT RightToeBase
                {
                    OFFSET -0.000000 -6.423989 14.824592
                    CHANNELS 3 Zrotation Xrotation Yrotation
                    End Site
                    {
                        OFFSET -0.000000 0.000000 3.953224
                    }
                }
            }
        }
    }
}
MOTION
Frames:    5
Frame Time:    0.008333
-5.972136    95.714882    168.306000    -0.729279    1.651344    -174.912842    -0.363187    -9.160598    0.183738    -0.363370    5.845747    0.231379    -0.242439    15.180500    -0.343871    0.488273    8.933358    -0.323719    15.231728    -0.270427    -2.559399    -15.565462    -1.784998    3.113982    0.586057    -1.867643    0.680868    3.112926    -1.970002    -3.639695    -16.251162    -1.282694    -4.090575    13.380780    1.423277    2.642299    -0.445898    0.181988    0.102002    4.139084    0.297784    3.195468    -2.049254    9.721794    0.499986    -0.666555    -3.137534    -2.521527    -2.551902    1.875083    4.454997    0.000000    0.000000    0.000000    -0.477580    12.745070    -1.200164    4.000709    -4.886577    8.377411    -1.833667    -0.953477    -13.123039    0.000000    0.000000    0.000000    
-5.964990    95.716843    168.306656    -0.723133    1.658485    -174.925201    -0.360840    -9.173820    0.184116    -0.358130    5.888342    0.231710    -0.210599    15.238094    -0.399942    0.394767    8.785885    -0.388177    15.243922    -0.276955    -2.537949    -15.602837    -1.747293    3.102119    0.630307    -1.892635    0.667710    3.050495    -1.993052    -3.634137    -16.276976    -1.314451    -4.081317    13.400976    1.459789    2.618193    -0.455825    0.166563    0.105460    4.154264    0.283350    3.210401    -2.044398    9.720946    0.537566    -0.653338    -3.117608    -2.581364    -2.607546    1.865927    4.495326    0.000000    0.000000    0.000000    -0.462998    12.748340    -1.174841    3.990719    -4.886276    8.333259    -1.844579    -0.941390    -13.103787    0.000000    0.000000    0.000000    
-5.964390    95.718018    168.310547    -0.726118    1.649748    -174.933533    -0.361625    -9.166035    0.188622    -0.356603    5.859849    0.235975    -0.234246    15.133985    -0.356270    0.479998    8.976326    -0.337191    15.229649    -0.277624    -2.536659    -15.581427    -1.767545    3.083318    0.595293    -1.877477    0.676247    3.076992    -1.978644    -3.635843    -16.274956    -1.290732    -4.084701    13.390092    1.495564    2.614718    -0.465931    0.149889    0.109101    4.176939    0.266581    3.186401    -2.053937    9.714461    0.500690    -0.643144    -3.127483    -2.516573    -2.613821    1.886822    4.477580    0.000000    0.000000    0.000000    -0.470086    12.740706    -1.158969    3.990629    -4.891043    8.309691    -1.852410    -0.938244    -13.070191    0.000000    0.000000    0.000000    
-5.958804    95.714989    168.314133    -0.722701    1.637672    -174.941208    -0.359893    -9.181477    0.191835    -0.360878    5.869989    0.239157    -0.204527    15.495987    -0.494097    0.482641    8.375805    -0.479105    15.243762    -0.285595    -2.549887    -15.611076    -1.762145    3.092108    0.629728    -1.884334    0.672275    3.044145    -1.984849    -3.645092    -16.267731    -1.308702    -4.088983    13.382292    1.523066    2.604167    -0.461527    0.123468    0.116295    4.096217    0.237489    3.164719    -2.129346    9.714271    0.726485    -0.503499    -3.182506    -2.433100    -2.694720    1.941911    4.216390    0.000000    0.000000    0.000000    -0.467374    12.732236    -1.199134    4.000834    -4.913724    8.379580    -1.869312    -0.912872    -13.087812    0.000000    0.000000    0.000000    
-5.955515    95.717110    168.314117    -0.719885    1.655308    -174.954697    -0.353155    -9.158366    0.195965    -0.361131    5.861522    0.242681    -0.219929    15.366934    -0.558074    0.524170    8.700613    -0.543887    15.235075    -0.283087    -2.554659    -15.606742    -1.772290    3.092123    0.625372    -1.854927    0.673953    3.023336    -1.955204    -3.660872    -16.294741    -1.345780    -4.092043    13.410352    1.560818    2.598290    -0.475713    0.113195    0.107591    4.097083    0.226624    3.158477    -2.124720    9.734101    0.738200    -0.512588    -3.192730    -2.369818    -2.620959    1.969022    4.126308    0.000000    0.000000    0.000000    -0.458410    12.744999    -1.188950    3.985350    -4.895885    8.424542    -1.862476    -0.927964    -13.133187    0.000000    0.000000    0.000000    
